<?xml version="1.0" standalone="no"?>
<!DOCTYPE svg PUBLIC "-//W3C//DTD SVG 20010904//EN"
 "http://www.w3.org/TR/2001/REC-SVG-20010904/DTD/svg10.dtd">
<svg version="1.0" xmlns="http://www.w3.org/2000/svg"
 width="409.000000pt" height="409.000000pt" viewBox="0 0 409.000000 409.000000"
 preserveAspectRatio="xMidYMid meet">
<metadata>
Created by potrace 1.14, written by Peter Selinger 2001-2017
</metadata>
<g transform="translate(0.000000,409.000000) scale(0.100000,-0.100000)"
fill="#000000" stroke="none">
<path d="M3122 4066 c-3 -28 -74 -144 -119 -192 -116 -125 -258 -197 -648
-329 -77 -26 -177 -65 -222 -86 -284 -130 -480 -379 -523 -664 -12 -81 -15
-209 -5 -255 3 -14 8 -44 11 -68 12 -88 80 -266 194 -507 24 -49 65 -137 92
-194 130 -276 156 -358 153 -486 -4 -141 -59 -282 -152 -384 -96 -106 -202
-170 -408 -246 -236 -87 -300 -122 -392 -215 -102 -103 -168 -286 -145 -405 4
-25 7 -22 23 32 36 117 102 207 198 272 89 60 204 104 466 177 186 51 318 127
429 245 104 110 168 235 194 379 17 90 6 252 -23 359 -31 113 -22 93 -205 471
-217 448 -249 540 -248 719 1 152 44 278 143 416 47 67 128 149 191 193 53 38
175 96 244 116 30 9 96 27 145 41 342 98 540 264 600 503 9 34 14 77 12 95 -2
17 -5 23 -5 13z"/>
<path d="M1840 3433 c-91 -15 -225 -73 -298 -129 -262 -200 -370 -476 -316
-812 18 -115 70 -292 114 -387 5 -11 24 -54 43 -95 19 -41 89 -187 156 -324
67 -137 133 -281 146 -320 82 -246 -12 -463 -273 -631 -34 -22 -62 -43 -62
-47 0 -10 130 32 207 67 216 99 356 295 362 505 4 154 -29 249 -216 625 -206
412 -254 554 -259 761 -3 130 9 207 49 316 57 159 182 313 330 408 47 30 86
58 86 63 1 7 -25 7 -69 0z"/>
<path d="M2385 3334 c-172 -61 -316 -184 -396 -340 -44 -83 -51 -103 -65 -179
-18 -99 -4 -237 34 -347 28 -77 99 -240 178 -405 37 -76 88 -185 115 -243 27
-58 54 -113 59 -123 17 -29 71 -168 90 -232 76 -255 54 -459 -73 -654 -93
-143 -234 -260 -387 -319 -66 -26 -165 -52 -198 -52 -59 0 29 -38 128 -55 313
-55 645 162 769 501 38 104 42 127 46 269 4 129 -8 204 -51 335 -39 116 -44
127 -271 577 -247 490 -272 552 -271 695 0 218 105 396 313 535 39 25 74 50
80 55 18 16 -30 7 -100 -18z"/>
</g>
</svg>
